# xmcd
#
# Track frame offsets:
#	150
#	30372
#	48829
#	102293
#	143167
#	178902
#	201201
#	238737
#	282248
#	299475
#	336820
#
# Disc length: 4800 seconds
#
# Revision: 1
# Processed by: cddbd v1.5.2PL0 Copyright (c) Steve Scherf et al.
# Submitted via: audiograbber 1.83.01
#
DISCID=a412be0b
DTITLE=Grateful Dead - 82-12-26 Oakland Auditorium Arena, Oakland CA
DYEAR=1900
DGENRE=
TTITLE0=Touch Of Grey
TTITLE1=Far From Me
TTITLE2=Estimated Prophet
TTITLE3=Eyes Of The World
TTITLE4=Drums
TTITLE5=Space
TTITLE6=Throwing Stones
TTITLE7=Wharf Rat
TTITLE8=Around and Around
TTITLE9=Good Lovin'
TTITLE10=Keep Your Day Job
EXTD=
EXTT0=
EXTT1=
EXTT2=
EXTT3=
EXTT4=
EXTT5=
EXTT6=
EXTT7=
EXTT8=
EXTT9=
EXTT10=
PLAYORDER=
